ffmpeg version 3.4.8-0ubuntu0.2 Copyright (c) 2000-2020 the FFmpeg developers
  built with gcc 7 (Ubuntu 7.5.0-3ubuntu1~18.04)
  configuration: --prefix=/usr --extra-version=0ubuntu0.2 --toolchain=hardened --libdir=/usr/lib/x86_64-linux-gnu --incdir=/usr/include/x86_64-linux-gnu --enable-gpl --disable-stripping --enable-avresample --enable-avisynth --enable-gnutls --enable-ladspa --enable-libass --enable-libbluray --enable-libbs2b --enable-libcaca --enable-libcdio --enable-libflite --enable-libfontconfig --enable-libfreetype --enable-libfribidi --enable-libgme --enable-libgsm --enable-libmp3lame --enable-libmysofa --enable-libopenjpeg --enable-libopenmpt --enable-libopus --enable-libpulse --enable-librubberband --enable-librsvg --enable-libshine --enable-libsnappy --enable-libsoxr --enable-libspeex --enable-libssh --enable-libtheora --enable-libtwolame --enable-libvorbis --enable-libvpx --enable-libwavpack --enable-libwebp --enable-libx265 --enable-libxml2 --enable-libxvid --enable-libzmq --enable-libzvbi --enable-omx --enable-openal --enable-opengl --enable-sdl2 --enable-libdc1394 --enable-libdrm --enable-libiec61883 --enable-chromaprint --enable-frei0r --enable-libopencv --enable-libx264 --enable-shared
  libavutil      55. 78.100 / 55. 78.100
  libavcodec     57.107.100 / 57.107.100
  libavformat    57. 83.100 / 57. 83.100
  libavdevice    57. 10.100 / 57. 10.100
  libavfilter     6.107.100 /  6.107.100
  libavresample   3.  7.  0 /  3.  7.  0
  libswscale      4.  8.100 /  4.  8.100
  libswresample   2.  9.100 /  2.  9.100
  libpostproc    54.  7.100 / 54.  7.100
[rawvideo @ 0x55fd8019ba20] Estimating duration from bitrate, this may be inaccurate
Input #0, rawvideo, from '../../SVC-Encoder-20220109T061506Z-001/SVC-Encoder/Dataset/RollerCoaster/6f_2x2/tile_yuv/f0_t0_480x480.yuv':
  Duration: 00:00:10.00, start: 0.000000, bitrate: 82944 kb/s
    Stream #0:0: Video: rawvideo (I420 / 0x30323449), yuv420p, 480x480, 82944 kb/s, 30 tbr, 30 tbn, 30 tbc
Stream mapping:
  Stream #0:0 -> #0:0 (rawvideo (native) -> h264 (libx264))
Press [q] to stop, [?] for help
[libx264 @ 0x55fd801a8c60] using cpu capabilities: MMX2 SSE2Fast LZCNT SSSE3 SSE4.2 AVX
[libx264 @ 0x55fd801a8c60] profile High, level 3.0
Output #0, rawvideo, to 'RollerCoaster_f0_t0_480x480_x264_QP_20.h264':
  Metadata:
    encoder         : Lavf57.83.100
    Stream #0:0: Video: h264 (libx264), yuv420p, 480x480, q=-1--1, 30 fps, 30 tbn, 30 tbc
    Metadata:
      encoder         : Lavc57.107.100 libx264
    Side data:
      cpb: bitrate max/min/avg: 0/0/0 buffer size: 0 vbv_delay: -1
frame=  300 fps=0.0 q=26.0 LPSNR=Y:inf U:inf V:inf *:inf size=      30kB time=00:00:09.93 bitrate=  24.8kbits/s speed=21.5x    
video:30kB audio:0kB subtitle:0kB other streams:0kB global headers:0kB muxing overhead: 0.000000%
[libx264 @ 0x55fd801a8c60] frame I:2     Avg QP:20.16  size:  1665  PSNR Mean Y:55.71 U:56.93 V:58.09 Avg:56.22 Global:56.22
[libx264 @ 0x55fd801a8c60] frame P:76    Avg QP:19.77  size:   279  PSNR Mean Y:56.04 U:56.52 V:57.68 Avg:56.35 Global:56.32
[libx264 @ 0x55fd801a8c60] frame B:222   Avg QP:25.43  size:    28  PSNR Mean Y:56.11 U:56.48 V:57.62 Avg:56.39 Global:56.37
[libx264 @ 0x55fd801a8c60] consecutive B-frames:  1.0%  0.7%  1.0% 97.3%
[libx264 @ 0x55fd801a8c60] mb I  I16..4: 83.7% 16.2%  0.1%
[libx264 @ 0x55fd801a8c60] mb P  I16..4:  5.0%  1.2%  0.0%  P16..4:  7.6%  0.4%  0.1%  0.0%  0.0%    skip:85.7%
[libx264 @ 0x55fd801a8c60] mb B  I16..4:  0.0%  0.0%  0.0%  B16..8:  1.1%  0.0%  0.0%  direct: 0.0%  skip:98.9%  L0:22.9% L1:77.1% BI: 0.0%
[libx264 @ 0x55fd801a8c60] 8x8 transform intra:18.5% inter:100.0%
[libx264 @ 0x55fd801a8c60] coded y,uvDC,uvAC intra: 1.7% 15.4% 0.0% inter: 0.1% 0.6% 0.0%
[libx264 @ 0x55fd801a8c60] i16 v,h,dc,p: 46% 33% 11% 11%
[libx264 @ 0x55fd801a8c60] i8 v,h,dc,ddl,ddr,vr,hd,vl,hu: 11% 19% 60%  0%  2%  1%  6%  0%  0%
[libx264 @ 0x55fd801a8c60] i4 v,h,dc,ddl,ddr,vr,hd,vl,hu:  0% 23% 75%  0%  0%  0%  2%  0%  0%
[libx264 @ 0x55fd801a8c60] i8c dc,h,v,p: 73% 12% 14%  1%
[libx264 @ 0x55fd801a8c60] Weighted P-Frames: Y:0.0% UV:0.0%
[libx264 @ 0x55fd801a8c60] ref P L0: 88.7%  1.9%  6.9%  2.4%
[libx264 @ 0x55fd801a8c60] ref B L0: 94.7%  4.3%  1.0%
[libx264 @ 0x55fd801a8c60] ref B L1: 97.7%  2.3%
[libx264 @ 0x55fd801a8c60] PSNR Mean Y:56.093 U:56.497 V:57.640 Avg:56.378 Global:56.358 kb/s:24.59
